<?xml version="1.0" encoding="UTF-8" standalone="no"?>
<!DOCTYPE svg PUBLIC "-//W3C//DTD SVG 1.1//EN"
 "http://www.w3.org/Graphics/SVG/1.1/DTD/svg11.dtd">
<!-- Generated by graphviz version 2.43.0 (0)
 -->
<!-- Title: G Pages: 1 -->
<svg width="406pt" height="260pt"
 viewBox="0.00 0.00 405.55 260.00" xmlns="http://www.w3.org/2000/svg" xmlns:xlink="http://www.w3.org/1999/xlink">
<g id="graph0" class="graph" transform="scale(1 1) rotate(0) translate(4 256)">
<title>G</title>
<polygon fill="white" stroke="transparent" points="-4,4 -4,-256 401.55,-256 401.55,4 -4,4"/>
<!-- a -->
<g id="node1" class="node">
<title>a</title>
<polygon fill="none" stroke="black" points="243.84,-252 153.71,-252 153.71,-216 243.84,-216 243.84,-252"/>
<text text-anchor="middle" x="198.78" y="-229.8" font-family="Times,serif" font-size="14.00">~/.nix&#45;profile</text>
</g>
<!-- b -->
<g id="node2" class="node">
<title>b</title>
<polygon fill="none" stroke="black" points="283.75,-180 113.8,-180 113.8,-144 283.75,-144 283.75,-180"/>
<text text-anchor="middle" x="198.78" y="-157.8" font-family="Times,serif" font-size="14.00">/nix/var/nix/profiles/default</text>
</g>
<!-- a&#45;&gt;b -->
<g id="edge1" class="edge">
<title>a&#45;&gt;b</title>
<path fill="none" stroke="black" d="M198.78,-215.7C198.78,-207.98 198.78,-198.71 198.78,-190.11"/>
<polygon fill="black" stroke="black" points="202.28,-190.1 198.78,-180.1 195.28,-190.1 202.28,-190.1"/>
</g>
<!-- c -->
<g id="node3" class="node">
<title>c</title>
<polygon fill="none" stroke="black" points="302.85,-108 94.7,-108 94.7,-72 302.85,-72 302.85,-108"/>
<text text-anchor="middle" x="198.78" y="-85.8" font-family="Times,serif" font-size="14.00">/nix/var/nix/profiles/default&#45;6&#45;link</text>
</g>
<!-- b&#45;&gt;c -->
<g id="edge2" class="edge">
<title>b&#45;&gt;c</title>
<path fill="none" stroke="black" d="M198.78,-143.7C198.78,-135.98 198.78,-126.71 198.78,-118.11"/>
<polygon fill="black" stroke="black" points="202.28,-118.1 198.78,-108.1 195.28,-118.1 202.28,-118.1"/>
</g>
<!-- d -->
<g id="node4" class="node">
<title>d</title>
<polygon fill="none" stroke="black" points="397.33,-36 0.22,-36 0.22,0 397.33,0 397.33,-36"/>
<text text-anchor="middle" x="198.78" y="-13.8" font-family="Times,serif" font-size="14.00">/nix/store/hsw97dr9h9z3wmlwhx2lib8r3k2f9wv3&#45;user&#45;environment</text>
</g>
<!-- c&#45;&gt;d -->
<g id="edge3" class="edge">
<title>c&#45;&gt;d</title>
<path fill="none" stroke="black" d="M198.78,-71.7C198.78,-63.98 198.78,-54.71 198.78,-46.11"/>
<polygon fill="black" stroke="black" points="202.28,-46.1 198.78,-36.1 195.28,-46.1 202.28,-46.1"/>
</g>
</g>
</svg>
