<?xml version="1.0" encoding="UTF-8" standalone="no"?>
<!DOCTYPE svg PUBLIC "-//W3C//DTD SVG 1.1//EN"
 "http://www.w3.org/Graphics/SVG/1.1/DTD/svg11.dtd">
<!-- Generated by graphviz version 2.30.1 (20130218.0320)
 -->
<!-- Title: %3 Pages: 1 -->
<svg width="206pt" height="267pt"
 viewBox="0.00 0.00 206.00 267.00" xmlns="http://www.w3.org/2000/svg" xmlns:xlink="http://www.w3.org/1999/xlink">
<g id="graph0" class="graph" transform="scale(1 1) rotate(0) translate(4 263)">
<title>%3</title>
<polygon fill="white" stroke="white" points="-4,5 -4,-263 203,-263 203,5 -4,5"/>
<!-- object -->
<g id="node1" class="node"><title>object</title>
<polygon fill="#f2f2f2" stroke="black" points="72,-222.5 72,-258.5 126,-258.5 126,-222.5 72,-222.5"/>
<text text-anchor="middle" x="98.6035" y="-234.9" font-family="Times,serif" font-size="14.00">object</text>
</g>
<!-- D -->
<g id="node2" class="node"><title>D</title>
<polygon fill="#f2f2f2" stroke="black" points="0,-148.5 0,-184.5 54,-184.5 54,-148.5 0,-148.5"/>
<text text-anchor="middle" x="26.5552" y="-160.9" font-family="Times,serif" font-size="14.00">D</text>
</g>
<!-- object&#45;&gt;D -->
<g id="edge1" class="edge"><title>object&#45;&gt;D</title>
<path fill="none" stroke="black" d="M74.0628,-214.87C64.3536,-204.891 53.4553,-193.69 44.593,-184.582"/>
<polygon fill="none" stroke="black" points="71.7201,-217.481 81.2022,-222.208 76.7372,-212.6 71.7201,-217.481"/>
</g>
<!-- E -->
<g id="node3" class="node"><title>E</title>
<polygon fill="#f2f2f2" stroke="black" points="72,-148.5 72,-184.5 126,-184.5 126,-148.5 72,-148.5"/>
<text text-anchor="middle" x="98.7759" y="-160.9" font-family="Times,serif" font-size="14.00">E</text>
</g>
<!-- object&#45;&gt;E -->
<g id="edge4" class="edge"><title>object&#45;&gt;E</title>
<path fill="none" stroke="black" d="M99,-212.202C99,-202.931 99,-192.887 99,-184.582"/>
<polygon fill="none" stroke="black" points="95.5001,-212.208 99,-222.208 102.5,-212.208 95.5001,-212.208"/>
</g>
<!-- F -->
<g id="node4" class="node"><title>F</title>
<polygon fill="#f2f2f2" stroke="black" points="144,-148.5 144,-184.5 198,-184.5 198,-148.5 144,-148.5"/>
<text text-anchor="middle" x="170.893" y="-160.9" font-family="Times,serif" font-size="14.00">F</text>
</g>
<!-- object&#45;&gt;F -->
<g id="edge6" class="edge"><title>object&#45;&gt;F</title>
<path fill="none" stroke="black" d="M123.937,-214.87C133.646,-204.891 144.545,-193.69 153.407,-184.582"/>
<polygon fill="none" stroke="black" points="121.263,-212.6 116.798,-222.208 126.28,-217.481 121.263,-212.6"/>
</g>
<!-- B -->
<g id="node5" class="node"><title>B</title>
<polygon fill="#f2f2f2" stroke="black" points="36,-74.5 36,-110.5 90,-110.5 90,-74.5 36,-74.5"/>
<text text-anchor="middle" x="62.6689" y="-86.9" font-family="Times,serif" font-size="14.00">B</text>
</g>
<!-- D&#45;&gt;B -->
<g id="edge2" class="edge"><title>D&#45;&gt;B</title>
<path fill="none" stroke="black" d="M40.3311,-139.097C44.9607,-129.581 50.033,-119.154 54.2035,-110.582"/>
<polygon fill="none" stroke="black" points="37.1263,-137.684 35.8989,-148.208 43.4209,-140.747 37.1263,-137.684"/>
</g>
<!-- C -->
<g id="node7" class="node"><title>C</title>
<polygon fill="#f2f2f2" stroke="black" points="108,-74.5 108,-110.5 162,-110.5 162,-74.5 108,-74.5"/>
<text text-anchor="middle" x="134.669" y="-86.9" font-family="Times,serif" font-size="14.00">C</text>
</g>
<!-- D&#45;&gt;C -->
<g id="edge9" class="edge"><title>D&#45;&gt;C</title>
<path fill="none" stroke="black" d="M62.0046,-142.515C77.1031,-132.17 94.4721,-120.269 108.479,-110.672"/>
<polygon fill="none" stroke="black" points="59.6908,-139.858 53.4198,-148.398 63.6474,-145.632 59.6908,-139.858"/>
</g>
<!-- E&#45;&gt;B -->
<g id="edge5" class="edge"><title>E&#45;&gt;B</title>
<path fill="none" stroke="black" d="M85.6689,-139.097C81.0393,-129.581 75.967,-119.154 71.7965,-110.582"/>
<polygon fill="none" stroke="black" points="82.5791,-140.747 90.1011,-148.208 88.8737,-137.684 82.5791,-140.747"/>
</g>
<!-- F&#45;&gt;C -->
<g id="edge7" class="edge"><title>F&#45;&gt;C</title>
<path fill="none" stroke="black" d="M157.669,-139.097C153.039,-129.581 147.967,-119.154 143.797,-110.582"/>
<polygon fill="none" stroke="black" points="154.579,-140.747 162.101,-148.208 160.874,-137.684 154.579,-140.747"/>
</g>
<!-- A -->
<g id="node6" class="node"><title>A</title>
<polygon fill="#f2f2f2" stroke="black" points="72,-0.5 72,-36.5 126,-36.5 126,-0.5 72,-0.5"/>
<text text-anchor="middle" x="98.5552" y="-12.9" font-family="Times,serif" font-size="14.00">A</text>
</g>
<!-- B&#45;&gt;A -->
<g id="edge3" class="edge"><title>B&#45;&gt;A</title>
<path fill="none" stroke="black" d="M76.3311,-65.0971C80.9607,-55.5807 86.033,-45.1544 90.2035,-36.5817"/>
<polygon fill="none" stroke="black" points="73.1263,-63.6844 71.8989,-74.2079 79.4209,-66.7466 73.1263,-63.6844"/>
</g>
<!-- C&#45;&gt;A -->
<g id="edge8" class="edge"><title>C&#45;&gt;A</title>
<path fill="none" stroke="black" d="M121.669,-65.0971C117.039,-55.5807 111.967,-45.1544 107.797,-36.5817"/>
<polygon fill="none" stroke="black" points="118.579,-66.7466 126.101,-74.2079 124.874,-63.6844 118.579,-66.7466"/>
</g>
</g>
</svg>
