<?xml version="1.0" encoding="UTF-8" standalone="no"?>
<!-- Generated by graphviz version 2.30.1 (20130218.0320)
 -->

<!-- Title: %3 Pages: 1 -->

<svg
   xmlns:dc="http://purl.org/dc/elements/1.1/"
   xmlns:cc="http://creativecommons.org/ns#"
   xmlns:rdf="http://www.w3.org/1999/02/22-rdf-syntax-ns#"
   xmlns:svg="http://www.w3.org/2000/svg"
   xmlns="http://www.w3.org/2000/svg"
   xmlns:sodipodi="http://sodipodi.sourceforge.net/DTD/sodipodi-0.dtd"
   xmlns:inkscape="http://www.inkscape.org/namespaces/inkscape"
   width="195.32407"
   height="379.92926"
   viewBox="0 0 156.25925 303.94341"
   id="svg2"
   version="1.1"
   inkscape:version="0.48.2 r9819"
   sodipodi:docname="class_conflict.svg">
  <metadata
     id="metadata111">
    <rdf:RDF>
      <cc:Work
         rdf:about="">
        <dc:format>image/svg+xml</dc:format>
        <dc:type
           rdf:resource="http://purl.org/dc/dcmitype/StillImage" />
      </cc:Work>
    </rdf:RDF>
  </metadata>
  <defs
     id="defs109" />
  <sodipodi:namedview
     pagecolor="#ffffff"
     bordercolor="#666666"
     borderopacity="1"
     objecttolerance="10"
     gridtolerance="10"
     guidetolerance="10"
     inkscape:pageopacity="0"
     inkscape:pageshadow="2"
     inkscape:window-width="1920"
     inkscape:window-height="1068"
     id="namedview107"
     showgrid="false"
     inkscape:zoom="2.8179105"
     inkscape:cx="-1.8068423"
     inkscape:cy="132.67906"
     inkscape:window-x="1280"
     inkscape:window-y="22"
     inkscape:window-maximized="1"
     inkscape:current-layer="graph0"
     fit-margin-top="0"
     fit-margin-left="0"
     fit-margin-right="0"
     fit-margin-bottom="0" />
  <g
     id="graph0"
     class="graph"
     transform="translate(4.499999,298.44341)"
     inkscape:transform-center-x="126.33475"
     inkscape:transform-center-y="6.7425848">
    <title
       id="title5">%3</title>
    <polygon
       points="131,-264 131,5 -4,5 -4,5 -4,-264 "
       id="polygon7"
       style="fill:#ffffff;stroke:#ffffff" />
    <!-- object -->
    <g
       id="node1"
       class="node">
      <title
         id="title10">object</title>
      <polygon
         points="90,-259 90,-223 36,-223 36,-223 36,-259 "
         id="polygon12"
         style="fill:#f2f2f2;stroke:#000000" />
      <text
         x="62.6035"
         y="-235.39999"
         font-size="14.00"
         id="text14"
         style="font-size:14px;text-anchor:middle;font-family:'Times,serif'">object</text>
    </g>
    <!-- X -->
    <g
       id="node2"
       class="node">
      <title
         id="title17">X</title>
      <polygon
         points="54,-185 54,-149 0,-149 0,-149 0,-185 "
         id="polygon19"
         style="fill:#f2f2f2;stroke:#000000" />
      <text
         x="26.555201"
         y="-161.39999"
         font-size="14.00"
         id="text21"
         style="font-size:14px;text-anchor:middle;font-family:'Times,serif'">X</text>
    </g>
    <!-- object&#45;&gt;X -->
    <g
       id="edge1"
       class="edge">
      <title
         id="title24">object-&gt;X</title>
      <path
         d="m 49.9539,-213.908 c -4.7338,9.468 -9.9632,19.927 -14.2336,28.467"
         id="path26"
         inkscape:connector-curvature="0"
         style="fill:none;stroke:#000000" />
      <polygon
         points="46.8658,-215.558 46.8658,-215.558 54.4685,-222.937 53.1268,-212.427 "
         id="polygon28"
         style="fill:none;stroke:#000000" />
    </g>
    <!-- Y -->
    <g
       id="node5"
       class="node">
      <title
         id="title31">Y</title>
      <polygon
         points="126,-185 126,-149 72,-149 72,-149 72,-185 "
         id="polygon33"
         style="fill:#f2f2f2;stroke:#000000" />
      <text
         x="98.555199"
         y="-161.39999"
         font-size="14.00"
         id="text35"
         style="font-size:14px;text-anchor:middle;font-family:'Times,serif'">Y</text>
    </g>
    <!-- object&#45;&gt;Y -->
    <g
       id="edge4"
       class="edge">
      <title
         id="title38">object-&gt;Y</title>
      <path
         d="m 76.0461,-213.908 c 4.7338,9.468 9.9632,19.927 14.2336,28.467"
         id="path40"
         inkscape:connector-curvature="0"
         style="fill:none;stroke:#000000" />
      <polygon
         points="72.8732,-212.427 72.8732,-212.427 71.5315,-222.937 79.1342,-215.558 "
         id="polygon42"
         style="fill:none;stroke:#000000" />
    </g>
    <!-- A -->
    <g
       id="node3"
       class="node">
      <title
         id="title45">A</title>
      <polygon
         points="54,-111 54,-75 0,-75 0,-75 0,-111 "
         id="polygon47"
         style="fill:#f2f2f2;stroke:#000000" />
      <text
         x="26.555201"
         y="-87.400002"
         font-size="14.00"
         id="text49"
         style="font-size:14px;text-anchor:middle;font-family:'Times,serif'">A</text>
    </g>
    <!-- X&#45;&gt;A -->
    <g
       id="edge2"
       class="edge">
      <title
         id="title52">X-&gt;A</title>
      <path
         d="m 27,-138.719 c 0,9.147 0,19.094 0,27.278"
         id="path54"
         inkscape:connector-curvature="0"
         style="fill:none;stroke:#000000" />
      <polygon
         points="23.5001,-138.937 23.5001,-138.937 27,-148.937 30.5001,-138.937 "
         id="polygon56"
         style="fill:none;stroke:#000000" />
    </g>
    <!-- B -->
    <g
       id="node6"
       class="node">
      <title
         id="title59">B</title>
      <polygon
         points="126,-111 126,-75 72,-75 72,-75 72,-111 "
         id="polygon61"
         style="fill:#f2f2f2;stroke:#000000" />
      <text
         x="98.6689"
         y="-87.400002"
         font-size="14.00"
         id="text63"
         style="font-size:14px;text-anchor:middle;font-family:'Times,serif'">B</text>
    </g>
    <!-- X&#45;&gt;B -->
    <!-- Z -->
    <g
       id="node4"
       class="node">
      <title
         id="title73">Z</title>
      <polygon
         points="90,-37 90,-1 36,-1 36,-1 36,-37 "
         id="polygon75"
         style="fill:#f2f2f2;stroke:#000000" />
      <text
         x="62.775902"
         y="-13.4"
         font-size="14.00"
         id="text77"
         style="font-size:14px;text-anchor:middle;font-family:'Times,serif'">C</text>
    </g>
    <!-- A&#45;&gt;Z -->
    <g
       id="edge3"
       class="edge">
      <title
         id="title80">A-&gt;Z</title>
      <path
         d="m 40.0461,-65.9077 c 4.7338,9.4675 9.9632,19.9264 14.2336,28.467"
         id="path82"
         inkscape:connector-curvature="0"
         style="fill:none;stroke:#000000" />
      <polygon
         points="36.8732,-64.4275 36.8732,-64.4275 35.5315,-74.937 43.1342,-67.558 "
         id="polygon84"
         style="fill:none;stroke:#000000" />
    </g>
    <!-- Y&#45;&gt;B -->
    <g
       id="edge5"
       class="edge">
      <title
         id="title87">Y-&gt;B</title>
      <path
         d="m 99,-138.719 c 0,9.147 0,19.094 0,27.278"
         id="path89"
         inkscape:connector-curvature="0"
         style="fill:none;stroke:#000000" />
      <polygon
         points="95.5001,-138.937 95.5001,-138.937 99,-148.937 102.5,-138.937 "
         id="polygon91"
         style="fill:none;stroke:#000000" />
    </g>
    <!-- Y&#45;&gt;A -->
    <g
       id="edge8"
       class="edge">
      <title
         id="title94">Y-&gt;A</title>
      <path
         d="m 74.6706,-141.671 c -9.9155,9.916 -21.1555,21.156 -30.2299,30.23"
         id="path96"
         inkscape:connector-curvature="0"
         style="fill:none;stroke:#000000" />
      <polygon
         points="72.391,-144.341 72.391,-144.341 81.937,-148.937 77.3408,-139.391 "
         id="polygon98"
         style="fill:none;stroke:#000000" />
    </g>
    <!-- B&#45;&gt;Z -->
    <g
       id="edge6"
       class="edge">
      <title
         id="title101">B-&gt;Z</title>
      <path
         d="m 85.9539,-65.9077 c -4.7338,9.4675 -9.9632,19.9264 -14.2336,28.467"
         id="path103"
         inkscape:connector-curvature="0"
         style="fill:none;stroke:#000000" />
      <polygon
         points="82.8658,-67.558 82.8658,-67.558 90.4685,-74.937 89.1268,-64.4275 "
         id="polygon105"
         style="fill:none;stroke:#000000" />
    </g>
    <path
       style="fill:none;stroke:#000000"
       inkscape:connector-curvature="0"
       d="m 14.504153,-196.19373 c -0.942689,-194.38718 232.341807,-79.09088 91.607327,85.79825"
       sodipodi:nodetypes="cc"
       id="path61" />
    <polygon
       style="fill:none;stroke:#000000"
       id="polygon70"
       points="53.609,-144.341 48.6592,-139.391 48.6592,-139.391 44.063,-148.937 "
       transform="matrix(-0.70710678,-0.70710678,0.70710678,-0.70710678,150.9432,-260.53363)" />
  </g>
</svg>
