<?xml version="1.0" encoding="UTF-8" standalone="no"?>
<!DOCTYPE svg PUBLIC "-//W3C//DTD SVG 1.1//EN"
 "http://www.w3.org/Graphics/SVG/1.1/DTD/svg11.dtd">
<!-- Generated by graphviz version 2.30.1 (20130218.0320)
 -->
<!-- Title: %3 Pages: 1 -->
<svg width="136pt" height="296pt"
 viewBox="0.00 0.00 136.00 296.00" xmlns="http://www.w3.org/2000/svg" xmlns:xlink="http://www.w3.org/1999/xlink">
<g id="graph0" class="graph" transform="scale(1 1) rotate(0) translate(4 292)">
<title>%3</title>
<polygon fill="white" stroke="white" points="-4,5 -4,-292 133,-292 133,5 -4,5"/>
<!-- A -->
<g id="node1" class="node"><title>A</title>
<polygon fill="#f2f2f2" stroke="black" points="34.5229,-163.2 34.5229,-212.8 91.4771,-212.8 91.4771,-163.2 34.5229,-163.2"/>
<text text-anchor="middle" x="63" y="-194.8" font-family="Times,serif" font-size="14.00">A</text>
<polyline fill="none" stroke="black" points="34.5229,-188 91.4771,-188 "/>
<text text-anchor="middle" x="63" y="-170" font-family="Times,serif" font-size="14.00">+ show</text>
</g>
<!-- B -->
<g id="node4" class="node"><title>B</title>
<polygon fill="#f2f2f2" stroke="black" points="0,-82 0,-118 54,-118 54,-82 0,-82"/>
<text text-anchor="middle" x="26.6689" y="-94.4" font-family="Times,serif" font-size="14.00">B</text>
</g>
<!-- A&#45;&gt;B -->
<g id="edge2" class="edge"><title>A&#45;&gt;B</title>
<path fill="none" stroke="black" d="M49.0165,-153.595C43.9219,-141.424 38.3749,-128.173 34.1232,-118.017"/>
<polygon fill="none" stroke="black" points="45.882,-155.171 52.972,-163.044 52.3391,-152.468 45.882,-155.171"/>
</g>
<!-- C -->
<g id="node2" class="node"><title>C</title>
<polygon fill="#f2f2f2" stroke="black" points="71.5229,-75.2 71.5229,-124.8 128.477,-124.8 128.477,-75.2 71.5229,-75.2"/>
<text text-anchor="middle" x="100" y="-106.8" font-family="Times,serif" font-size="14.00">C</text>
<polyline fill="none" stroke="black" points="71.5229,-100 128.477,-100 "/>
<text text-anchor="middle" x="100" y="-82" font-family="Times,serif" font-size="14.00">+ show</text>
</g>
<!-- A&#45;&gt;C -->
<g id="edge4" class="edge"><title>A&#45;&gt;C</title>
<path fill="none" stroke="black" d="M77.3201,-153.716C81.4651,-144.081 85.9055,-133.76 89.7487,-124.827"/>
<polygon fill="none" stroke="black" points="74.0436,-152.475 73.3066,-163.044 80.4738,-155.242 74.0436,-152.475"/>
</g>
<!-- D -->
<g id="node5" class="node"><title>D</title>
<polygon fill="#f2f2f2" stroke="black" points="36,-1 36,-37 90,-37 90,-1 36,-1"/>
<text text-anchor="middle" x="62.5552" y="-13.4" font-family="Times,serif" font-size="14.00">D</text>
</g>
<!-- C&#45;&gt;D -->
<g id="edge5" class="edge"><title>C&#45;&gt;D</title>
<path fill="none" stroke="black" d="M84.408,-65.709C79.8156,-55.9036 74.978,-45.5746 71.0655,-37.221"/>
<polygon fill="none" stroke="black" points="81.2867,-67.2967 88.6977,-74.8681 87.6259,-64.3276 81.2867,-67.2967"/>
</g>
<!-- object -->
<g id="node3" class="node"><title>object</title>
<polygon fill="#f2f2f2" stroke="black" points="36,-251 36,-287 90,-287 90,-251 36,-251"/>
<text text-anchor="middle" x="62.6035" y="-263.4" font-family="Times,serif" font-size="14.00">object</text>
</g>
<!-- object&#45;&gt;A -->
<g id="edge1" class="edge"><title>object&#45;&gt;A</title>
<path fill="none" stroke="black" d="M63,-240.816C63,-231.777 63,-221.782 63,-213.001"/>
<polygon fill="none" stroke="black" points="59.5001,-240.858 63,-250.858 66.5001,-240.858 59.5001,-240.858"/>
</g>
<!-- B&#45;&gt;D -->
<g id="edge3" class="edge"><title>B&#45;&gt;D</title>
<path fill="none" stroke="black" d="M39.0538,-72.5486C44.3803,-60.86 50.4893,-47.4541 55.2038,-37.1084"/>
<polygon fill="none" stroke="black" points="35.7733,-71.3071 34.8115,-81.8582 42.1431,-74.2098 35.7733,-71.3071"/>
</g>
</g>
</svg>
